<!-- from https://commons.wikimedia.org/wiki/File:Amiibo.svg -->
<svg xmlns="http://www.w3.org/2000/svg" xmlns:xlink="http://www.w3.org/1999/xlink" viewBox="0 0 359.46 81.52">
  <defs>
    <path id="a" d="M.231.424h18.252v15.07H.231z"/>
    <path id="c" d="M.269.208h21.313v19.518H.269z"/>
  </defs>
  <g fill="none" fill-rule="evenodd">
    <g transform="translate(340.978 38.549)">
      <mask id="b" fill="#fff">
        <use xlink:href="#a"/>
      </mask>
      <path d="m.987 13.359 16.11 2.128c.483.064.93-.28.99-.764.524-4.496.528-9.039.014-13.528a.88.88 0 0 0-.987-.763L1 2.527a.874.874 0 0 0-.754.968c.32 2.952.317 5.936-.009 8.894a.875.875 0 0 0 .75.97" fill="#F5AA00" mask="url(#b)"/>
    </g>
    <g transform="translate(333.229 61.797)">
      <mask id="d" fill="#fff">
        <use xlink:href="#c"/>
      </mask>
      <path d="m.608 9.647 12.886 9.897a.88.88 0 0 0 1.24-.17A58.8 58.8 0 0 0 21.51 7.673a.88.88 0 0 0-.472-1.157L6.034.275a.874.874 0 0 0-1.137.46A40.4 40.4 0 0 1 .441 8.431a.876.876 0 0 0 .167 1.215" fill="#E62D8C" mask="url(#d)"/>
    </g>
    <path d="m339.237 30.921 15.015-6.208a.88.88 0 0 0 .475-1.158 58.7 58.7 0 0 0-6.75-11.722.88.88 0 0 0-1.24-.171l-12.906 9.875a.87.87 0 0 0-.167 1.214 40.8 40.8 0 0 1 4.436 7.708.874.874 0 0 0 1.137.462" fill="#009682"/>
    <path d="m25.625 21.562-12.887-9.9a.88.88 0 0 0-1.239.17A58.6 58.6 0 0 0 4.723 23.54a.876.876 0 0 0 .472 1.155l15.003 6.242a.876.876 0 0 0 1.137-.462 40.8 40.8 0 0 1 4.456-7.697.877.877 0 0 0-.166-1.216" fill="#E6001E"/>
    <path d="m17.496 41.1-16.11-2.13a.88.88 0 0 0-.988.766 59 59 0 0 0-.016 13.527.88.88 0 0 0 .989.766l16.112-2.097a.876.876 0 0 0 .755-.969 41 41 0 0 1 .009-8.893.873.873 0 0 0-.751-.97" fill="#A5C80F"/>
    <path d="M20.226 62.086 5.21 68.297a.88.88 0 0 0-.475 1.156 59 59 0 0 0 6.75 11.719.88.88 0 0 0 1.238.169l12.908-9.872a.87.87 0 0 0 .167-1.214 40.8 40.8 0 0 1-4.437-7.705.87.87 0 0 0-1.135-.464" fill="#009BEB"/>
    <path d="M245.528 21.222c-2.76 0-5.294.63-7.128 1.222-.48.156-.803.603-.803 1.11v12.25a.86.86 0 0 0 1.125.824c1.539-.495 3.712-.929 5.636-.929 6.58 0 10.666 4.875 10.666 10.81 0 6.048-4.304 10.998-10.844 10.802-5.904-.176-10.54-4.896-10.54-10.803V2.065a.875.875 0 0 0-.874-.875H218.65a.875.875 0 0 0-.875.875V46.05c0 15.184 10.305 25.743 26.777 25.743 14.344 0 26.34-11.33 26.34-25.385 0-14.131-9.641-25.186-25.364-25.186m-104.403 0c-5.257 0-10.209 2.162-14.165 6.486-3.956-4.324-8.906-6.486-14.165-6.486-11.011 0-19.749 6.979-19.749 18.54V69.73c0 .482.392.875.875.875h14.116a.877.877 0 0 0 .876-.875V41.432c0-3.14 2.286-4.938 5.056-4.938 2.772 0 5.059 1.806 5.059 4.938V69.73c0 .482.392.875.875.875h14.116a.876.876 0 0 0 .873-.875V41.432c0-3.132 2.289-4.938 5.059-4.938s5.057 1.799 5.057 4.938V69.73c0 .482.391.875.874.875H160a.875.875 0 0 0 .875-.875V39.763c0-11.562-8.737-18.54-19.749-18.54m160.317 36.084c-6.124 0-10.704-4.783-10.704-10.799s4.58-10.798 10.704-10.798 10.707 4.783 10.707 10.798c0 6.016-4.583 10.799-10.707 10.799m0-36.085c-13.93 0-25.619 11.33-25.619 25.286 0 13.955 11.708 25.285 25.619 25.285 13.912 0 25.62-11.564 25.62-25.285s-11.687-25.286-25.62-25.286m-93.05 1.19h-14.115a.873.873 0 0 0-.875.875v46.442c0 .482.39.875.875.875h14.114a.876.876 0 0 0 .876-.875V23.287a.875.875 0 0 0-.876-.875M201.335 0c-5.059 0-9.025 3.87-9.025 9.026 0 5.154 3.966 9.023 9.025 9.023 5.057 0 9.022-3.869 9.022-9.023 0-5.157-3.965-9.026-9.022-9.026M177.14 0c-5.058 0-9.022 3.87-9.022 9.026 0 5.154 3.964 9.023 9.022 9.023s9.024-3.869 9.024-9.023c0-5.157-3.966-9.026-9.024-9.026m7.057 22.412h-14.114a.874.874 0 0 0-.875.875v46.442c0 .482.39.875.875.875h14.114a.876.876 0 0 0 .876-.875V23.287a.875.875 0 0 0-.876-.875m-125.873-1.19c-15.04 0-25.924 11.553-25.924 25.386 0 16.062 11.224 25.185 24.339 25.185 2.685 0 6.149-.342 8.206-1.216.465-.197.734-.69.734-1.19V57.308a.87.87 0 0 0-1.117-.836c-1.35.387-3.076.843-6.03.843-4.772 0-10.266-3.407-10.266-11.106 0-6.05 4.716-10.51 10.245-10.51 6.9 0 11.134 4.816 11.134 11.192V69.73c0 .482.392.875.876.875h14.115a.876.876 0 0 0 .875-.875V46.191c0-14.973-10.726-24.969-27.187-24.969" fill="#000"/>
  </g>
</svg>